<svg xmlns="http://www.w3.org/2000/svg" xml:space="preserve" width="274.889" height="241.312"><path d="M705.316 234.334c-8.777-1.166-19.922-6.25-26.5-12.085-9.94-8.817-14.081-20.2-14.428-39.656-.28-15.737-1.271-17.75-12.744-25.89-14.186-10.066-22.677-22.544-26.952-39.608-1.734-6.925-2.026-10.42-1.627-19.5.602-13.712 3.013-20.499 9.997-28.14 7.105-7.774 13.056-10.338 27.453-11.827 6.49-.671 12.852-1.79 14.136-2.488 3.105-1.686 4.598-5.558 6.99-18.119 2.462-12.932 5.139-20.208 10.249-27.86 4.198-6.287 7.698-9.39 14.926-13.23 3.837-2.04 5.9-2.392 14-2.39 8.395.002 10.099.317 14.649 2.712 3.137 1.652 7.782 5.642 11.89 10.214 11.063 12.312 14.853 12.32 25.874.054 9.085-10.111 14.986-12.992 26.587-12.978 9.883.011 15.2 1.965 21.957 8.07 8.906 8.046 13.509 17.759 16.904 35.67 3.414 18.008 4.857 19.402 21.4 20.677 7.582.584 12.788 1.54 15.998 2.938 9.652 4.202 18.058 14.872 20.681 26.25 1.704 7.388 1.26 21.773-.94 30.475-4.285 16.956-12.548 28.844-27.169 39.089-11.28 7.904-12.293 9.967-12.443 25.321-.185 18.929-3.692 29.424-12.916 38.654-13.311 13.322-30.655 16.774-61.943 12.33-17.468-2.48-24.246-2.477-42.888.023-13.656 1.832-25.593 2.298-33.14 1.294zm35-5.885c13.332-2.163 27.415-2.097 42 .197 6.643 1.044 17.134 1.887 23.5 1.887 19.556 0 31.572-5.582 39.963-18.564 5.472-8.466 7.137-16.439 6.806-32.588l-.269-13.151 3.006-4.29c1.654-2.36 6.732-6.936 11.285-10.171 12.783-9.082 19.961-19.52 24.3-35.334 3.064-11.17 2.487-28.482-1.216-36.448-3.538-7.612-7.993-12.376-14.598-15.607-4.818-2.357-7.248-2.814-17.681-3.325-13.941-.682-16.295-1.704-19.586-8.5-1.148-2.373-2.524-7.173-3.057-10.668-2.822-18.483-7.813-30.705-15.394-37.693-4.921-4.536-13.792-8.161-19.97-8.161-9.167 0-17.926 4.864-24.796 13.77-4.303 5.576-9.985 9.164-14.583 9.208-4.058.039-9.56-3.697-15.934-10.82-7.147-7.985-12.285-10.876-20.939-11.78C712.158-4.74 702.099.38 695.34 10.563c-4.704 7.085-7.075 14.142-9.482 28.215-2.078 12.143-3.833 16.27-8.361 19.65-2.378 1.775-4.726 2.192-15 2.668-10.507.487-12.868.92-17.18 3.16-9.376 4.87-14.433 12.222-17.113 24.875-3.372 15.928 1.932 37.27 12.624 50.797 2.184 2.763 8.333 8.304 13.664 12.314 13.198 9.927 13.918 11.42 13.515 28.033-.446 18.33 2.102 27.15 10.636 36.83 4.671 5.299 13.425 10.28 21.807 12.412 7.157 1.82 25.008 1.341 39.866-1.07zm-36.663-8.267c-13.757-4.565-20.91-12.728-24.428-27.878-1.29-5.55-1.377-8.124-.487-14.271 1.705-11.771 6.273-19.924 18.361-32.772 7.216-7.669 12.044-13.957 16.438-21.408 14.17-24.032 33.887-33.577 58.56-28.348 14.632 3.1 24.597 11.327 35.457 29.27 5.198 8.587 9.913 14.75 16.726 21.858 12.824 13.381 16.628 20.832 17.312 33.91.824 15.756-4.583 28.2-15.354 35.334-6.86 4.544-11.513 5.66-23.422 5.622-8.258-.028-12.955-.662-22-2.972-15.202-3.883-26.111-3.902-41-.073-14.157 3.64-28.356 4.32-36.163 1.728zm-3.127-38.662c.385-9.037 3.916-15.913 15.514-30.209 3.222-3.971 9.645-12.746 14.273-19.5 7.105-10.365 8.204-12.491 7.055-13.646-1.924-1.936-2.866-1.071-9.457 8.692-3.222 4.772-10.255 14.301-15.63 21.176-10.923 13.973-15.325 22.243-16.164 30.372-.668 6.472.036 8.902 2.445 8.439 1.352-.261 1.8-1.473 1.964-5.324zm140.641 21.986c-.368-.96-.047-2.051.753-2.558 1.982-1.253 3.396-.564 3.396 1.655 0 2.415-3.293 3.132-4.149.903zm-168.35-9.806c0-2.076 1.183-2.76 2.657-1.536 1.939 1.609 1.65 2.869-.658 2.869-1.1 0-2-.6-2-1.333zm.573-34.236c-1.81-1.81-.525-5.431 1.926-5.431 2.221 0 3.899 3.815 2.447 5.564-1.525 1.837-2.43 1.81-4.373-.133zm176.762-6.998c-.33-.862-.167-2.002.364-2.533 1.436-1.436 4.3.034 4.3 2.207 0 2.344-3.788 2.608-4.664.326zm-186.554-9.37c-16.99-6.643-29.782-26.215-29.782-45.566 0-13.987 6.137-23.595 17.295-27.08 4.98-1.556 6.582-1.646 11.383-.639 8.523 1.788 14.233 4.988 20.822 11.67 10.743 10.893 16.053 24.075 15.29 37.96-.66 12.03-5.08 19.351-14.29 23.672-5.186 2.433-14.47 2.425-20.718-.018zm19.12-4.512c3.92-2.028 8.66-7.695 10.111-12.09.742-2.25 1.055-6.946.794-11.925-1.464-27.883-31.025-50.004-47.876-35.824-5.132 4.318-7.275 9.75-7.214 18.288.158 22.171 17.364 42.96 35.583 42.99 3.19.005 7.06-.642 8.601-1.439zm152.355 3.929c-5.591-2.828-8.213-5.803-11.183-12.686-4.17-9.666-3.158-21.545 2.92-34.28 6.975-14.616 22.337-25.832 35.486-25.91 10.552-.062 18.592 5.679 22.53 16.084 4.026 10.645 1.429 26.47-6.34 38.613-11.137 17.41-29.625 25.152-43.413 18.179zm21.475-4.445c2.328-1.057 6.558-4.084 9.402-6.728 18.103-16.831 21.426-43.717 6.669-53.944-5.522-3.826-13.912-3.986-21.303-.405-11.3 5.475-22 20.251-24.45 33.77-1.668 9.196.915 20.215 5.767 24.607 5.546 5.018 16.166 6.218 23.915 2.7zm-148.141-28.66c-.849-2.21 1.72-4.854 3.902-4.016 1.015.39 1.524 1.498 1.327 2.887-.398 2.808-4.265 3.643-5.23 1.13zm101.992-4.691c-2.349-1.717-1.666-5.098 1.11-5.495 3.047-.436 4.886 3.09 2.734 5.242-1.888 1.887-1.632 1.87-3.844.253zM718.7 83.653c-21.095-7.538-32.26-41.323-20.97-63.454 4.786-9.381 13.883-14.723 23.8-13.975 7.486.564 12.347 2.969 18.37 9.088 6.01 6.105 10.269 14.429 12.49 24.409 6.16 27.694-12.185 51.617-33.69 43.932zm-10.841-44.37c.052-6.794 1.71-11.928 5.427-16.8 4.17-5.468 1.36-9.092-3.248-4.188-6.721 7.155-9.8 26.738-4.204 26.738 1.74 0 1.986-.7 2.025-5.75zm48.623 45.083c-.367-.366-.667-1.716-.667-3 0-1.794.553-2.333 2.393-2.333 2.961 0 4.041 2.423 1.993 4.471-1.661 1.662-2.683 1.898-3.72.862zm26.614-1.83c-10.184-5.173-15.78-16.523-15.78-32.003 0-10.473 1.443-16.394 6.285-25.785 8.048-15.608 23.758-22.7 36.752-16.592 19.709 9.264 22.062 45.425 4.309 66.195-5.847 6.84-11.573 9.866-19.672 10.397-5.757.378-7.392.074-11.894-2.213zm2.599-47.926c1.422-3.43 4.06-7.118 7.184-10.04 4.652-4.351 5.765-6.374 4.31-7.83-.345-.345-1.842 0-3.326.768-8.192 4.237-18.124 22.525-12.232 22.525 1.255 0 2.51-1.675 4.064-5.423zm-97.24 42.73c-1.196-1.196-.646-3.307.86-3.307.825 0 1.5.648 1.5 1.441 0 1.67-1.427 2.798-2.36 1.865zm144.806-3.394c-1.03-1.668 1.287-3.58 2.667-2.2 1.154 1.154.432 3.287-1.113 3.287-.485 0-1.184-.49-1.554-1.087z" style="fill:#000" transform="translate(-622.907 6.46)"/></svg>